<svg id="visual" viewBox="0 0 900 600" width="900" height="600" xmlns="http://www.w3.org/2000/svg" xmlns:xlink="http://www.w3.org/1999/xlink" version="1.1"><rect x="0" y="0" width="900" height="600" fill="#002233"></rect><path d="M0 468L21.5 470.2C43 472.3 86 476.7 128.8 490.5C171.7 504.3 214.3 527.7 257.2 535.5C300 543.3 343 535.7 385.8 526.2C428.7 516.7 471.3 505.3 514.2 502.5C557 499.7 600 505.3 642.8 505.2C685.7 505 728.3 499 771.2 495.8C814 492.7 857 492.3 878.5 492.2L900 492L900 601L878.5 601C857 601 814 601 771.2 601C728.3 601 685.7 601 642.8 601C600 601 557 601 514.2 601C471.3 601 428.7 601 385.8 601C343 601 300 601 257.2 601C214.3 601 171.7 601 128.8 601C86 601 43 601 21.5 601L0 601Z" fill="#0066FF" stroke-linecap="round" stroke-linejoin="miter"></path></svg>